<svg width="710" height="412" viewBox="0 0 710 412" fill="none" xmlns="http://www.w3.org/2000/svg">
<g id="computer">
<g id="Group 6">
<g id="LOGO">
<path id="Union" fill-rule="evenodd" clip-rule="evenodd" d="M267.142 51.9603C237.735 51.3068 215.766 78.809 222.899 107.345L252.975 227.647C257.937 247.494 275.769 261.417 296.226 261.417H446.546C477.335 261.417 498.856 230.949 488.564 201.931L446.989 84.714C445.874 81.57 444.43 78.6093 442.703 75.8653L449.698 75.9917C455.293 76.0928 459.911 71.639 460.012 66.044C460.113 60.4489 455.659 55.8312 450.064 55.7301L378.95 54.4449L267.142 51.9603Z" fill="#152E2E"/>
<g id="Rectangle 5">
<path d="M332.055 118.718C330.18 112.491 334.842 106.219 341.345 106.219V106.219C345.626 106.219 349.401 109.024 350.635 113.123L357.964 137.461C359.84 143.688 355.178 149.96 348.674 149.96V149.96C344.394 149.96 340.619 147.155 339.384 143.056L332.055 118.718Z" fill="#D3E3E4"/>
<path d="M369.546 117.877C367.67 111.65 372.332 105.378 378.836 105.378V105.378C383.116 105.378 386.891 108.183 388.126 112.282L395.454 136.619C397.33 142.846 392.668 149.119 386.164 149.119V149.119C381.884 149.119 378.109 146.314 376.874 142.215L369.546 117.877Z" fill="#D3E3E4"/>
</g>
<path id="Ellipse 4" d="M404.397 164.146C414.967 164.146 423.867 173.052 419.68 182.758V182.758C417.134 188.659 413.402 194.02 408.698 198.536C403.993 203.053 398.408 206.635 392.262 209.079C386.115 211.524 379.527 212.782 372.874 212.782C366.221 212.782 359.633 211.524 353.486 209.079C347.34 206.635 341.755 203.053 337.05 198.536C332.346 194.02 328.614 188.659 326.068 182.758V182.758C321.88 173.052 330.781 164.146 341.351 164.146L372.874 164.146H404.397Z" fill="#D3E3E4"/>
<path id="Union_2" fill-rule="evenodd" clip-rule="evenodd" d="M190.49 22.2914C191.154 22.2523 191.793 22.2117 192.407 22.1698L455.379 20.2981L499.441 150.491C501.235 155.792 506.986 158.635 512.287 156.841C517.588 155.047 520.43 149.296 518.636 143.995L472.324 7.15424C470.854 2.80915 466.724 0.115647 462.363 0.273867C461.586 0.0893376 460.775 -0.00567434 459.941 0.00026212L175.219 2.02675C174.496 2.0319 173.79 2.1128 173.11 2.26186C172.2 2.38824 171.292 2.64151 170.41 3.03082L170.498 3.22995L170.495 3.2314C170.406 3.03232 170.406 3.03262 170.405 3.03292L170.399 3.03543L170.385 3.04162L170.347 3.05876L170.228 3.11217C170.13 3.15629 169.995 3.21748 169.824 3.2959C169.483 3.45274 168.998 3.67856 168.38 3.9747C167.144 4.5669 165.372 5.44075 163.14 6.607C158.676 8.93882 152.361 12.4438 144.797 17.2091C129.681 26.7311 109.494 41.3359 89.0937 61.7359C68.6073 82.2224 54.6716 102.459 45.8337 117.629C41.412 125.218 38.2565 131.556 36.1875 136.047C35.1527 138.294 34.3887 140.08 33.8732 141.333C33.6154 141.959 33.4197 142.452 33.2832 142.803C33.215 142.978 33.1616 143.117 33.1226 143.22L33.0749 143.347L33.0592 143.389L33.0533 143.405L33.0508 143.412C33.0505 143.413 33.0503 143.413 33.2178 143.476L33.2163 143.479L33.0487 143.418C32.5947 144.65 32.3953 145.914 32.4239 147.151C32.4029 147.99 32.4865 148.844 32.6845 149.699L64.2051 285.735H10.1324C4.53644 285.735 0 290.272 0 295.868C0 301.464 4.53644 306 10.1324 306H435.695H496.49H686.98C699.291 306 709.271 296.02 709.271 283.709V267.497C709.271 255.186 699.291 245.205 686.98 245.205H556.716C556.686 245.116 556.655 245.028 556.623 244.939L533.188 180.884C531.265 175.629 525.446 172.927 520.191 174.85C514.936 176.772 512.234 182.591 514.157 187.847L535.142 245.205H435.695C423.384 245.205 413.404 255.185 413.404 267.497V283.709C413.404 284.392 413.435 285.068 413.495 285.735H244.234C244.259 284.775 244.147 283.796 243.883 282.822L182.3 55.1519C180.839 49.75 175.276 46.5554 169.874 48.0166C164.472 49.4778 161.277 55.0413 162.738 60.4432L223.678 285.735H85.0069L54.5097 154.116L54.7153 154.013C54.4045 151.838 54.1509 146.802 55.3758 142.854C57.1999 139.013 59.8192 133.879 63.3437 127.83C71.4777 113.869 84.393 95.0955 103.423 76.0654C122.54 56.9489 141.472 43.2539 155.598 34.3555C158.759 32.3643 161.675 30.6159 164.294 29.103L164.301 29.2825C167.499 27.2188 176.936 23.0887 190.49 22.2914ZM435.695 285.735H496.49H686.98C688.099 285.735 689.007 284.828 689.007 283.709V267.497C689.007 266.377 688.099 265.47 686.98 265.47H435.695C434.576 265.47 433.669 266.377 433.669 267.497V283.709C433.669 284.828 434.576 285.735 435.695 285.735Z" fill="#152E2E"/>
</g>
<path id="FILIKR Studios" d="M166.418 336.937V392H173.972V369.612H186.755V362.059H173.972V344.456H189.489V336.937H166.418ZM196.359 392H203.879V336.937H196.359V392ZM210.715 336.971V392H233.786V384.446H218.234V336.971H210.715ZM238.947 392H246.467V336.937H238.947V392ZM260.822 373.919V392H253.303V336.937H260.822V359.905L274.016 336.902H283.483L268.513 361.375L285.056 392H275.588L263.625 369.339L260.822 373.919ZM308.571 356.556C308.571 358.812 307.819 360.543 306.315 361.751C305.062 362.731 303.513 363.221 301.667 363.221H297.771V344.456H301.667C303.513 344.456 305.062 344.957 306.315 345.96C307.819 347.099 308.571 348.82 308.571 351.121V356.556ZM301.496 369.749C306.304 369.749 308.708 372.05 308.708 376.653V388.548C308.708 389.869 308.936 391.043 309.392 392.068H316.911C316.455 391.043 316.228 389.869 316.228 388.548V375.149C316.228 370.82 314.427 367.824 310.827 366.16C314.359 364.269 316.125 360.612 316.125 355.188V351.121C316.125 347.02 314.758 343.624 312.023 340.936C309.312 338.27 305.86 336.937 301.667 336.937H290.217V392H297.771V369.749H301.496ZM361.413 381.404C362.712 374.591 360.923 368.929 356.047 364.417C355.318 363.756 354.486 363.073 353.552 362.366L352.287 361.478L351.057 360.589C349.188 359.313 347.867 358.322 347.092 357.615C346.158 356.795 345.406 355.929 344.836 355.018C343.993 353.742 343.537 352.067 343.469 349.993L343.503 349.959C343.503 348.25 344.016 346.78 345.041 345.55C346.066 344.319 347.308 343.704 348.767 343.704C350.225 343.704 351.478 344.319 352.526 345.55C353.552 346.78 354.064 348.25 354.064 349.959V353.138H361.584V349.959C361.584 346.176 360.331 342.941 357.824 340.252C355.318 337.586 352.299 336.253 348.767 336.253C345.303 336.253 342.329 337.552 339.846 340.149C337.339 342.747 336.04 345.892 335.949 349.583H335.915C335.915 353.274 336.77 356.43 338.479 359.051C339.413 360.509 340.598 361.888 342.033 363.187C342.717 363.779 343.492 364.406 344.357 365.066L345.554 365.921L346.75 366.741C348.687 368.086 350.065 369.134 350.886 369.886C353.757 372.529 354.794 375.901 353.996 380.003C353.7 381.53 353.073 382.783 352.116 383.763C351.136 384.72 350.02 385.198 348.767 385.198C347.308 385.198 346.066 384.583 345.041 383.353C344.016 382.145 343.503 380.675 343.503 378.943V375.867H335.949V379.046C335.972 382.806 337.237 386.019 339.743 388.685C342.25 391.351 345.257 392.684 348.767 392.684C351.843 392.684 354.566 391.635 356.936 389.539C359.283 387.443 360.775 384.731 361.413 381.404ZM365.07 336.971V344.524H374.196V392H381.75V344.524H390.876V336.971H365.07ZM426.73 336.971H419.177V376.688C419.177 379.012 418.505 381.006 417.16 382.669C415.793 384.31 414.152 385.13 412.238 385.13C410.324 385.13 408.684 384.31 407.316 382.669C405.949 381.006 405.266 379.012 405.266 376.688V336.971H397.746V376.688C397.746 381.108 399.159 384.879 401.984 388.001C404.81 391.123 408.228 392.684 412.238 392.684C416.249 392.684 419.667 391.123 422.492 388.001C425.318 384.879 426.73 381.108 426.73 376.688V336.971ZM453.288 377.781C453.288 380.037 452.536 381.769 451.032 382.977C449.779 383.956 448.229 384.446 446.384 384.446H441.12V344.456H446.384C448.229 344.456 449.779 344.957 451.032 345.96C452.536 347.145 453.288 348.865 453.288 351.121V377.781ZM460.842 351.121C460.842 347.02 459.475 343.624 456.74 340.936C454.029 338.27 450.576 336.937 446.384 336.937H433.566V392H446.384C450.576 392 454.029 390.656 456.74 387.967C459.475 385.301 460.842 381.906 460.842 377.781V351.121ZM467.678 392H475.197V336.937H467.678V392ZM489.587 352.249C489.587 349.902 490.271 347.908 491.638 346.268C493.005 344.604 494.646 343.772 496.56 343.772C498.474 343.772 500.114 344.604 501.481 346.268C502.826 347.908 503.498 349.902 503.498 352.249V376.688C503.498 379.012 502.826 381.006 501.481 382.669C500.114 384.31 498.474 385.13 496.56 385.13C494.646 385.13 493.005 384.31 491.638 382.669C490.271 381.006 489.587 379.012 489.587 376.688V352.249ZM496.56 392.684C500.547 392.684 503.965 391.123 506.813 388.001C509.639 384.879 511.052 381.108 511.052 376.688V352.249C511.052 347.828 509.639 344.057 506.813 340.936C503.965 337.814 500.547 336.253 496.56 336.253C492.549 336.253 489.131 337.814 486.306 340.936C483.457 344.057 482.033 347.828 482.033 352.249V376.688C482.033 381.108 483.457 384.879 486.306 388.001C489.131 391.123 492.549 392.684 496.56 392.684ZM542.565 381.404C543.864 374.591 542.076 368.929 537.199 364.417C536.47 363.756 535.638 363.073 534.704 362.366L533.439 361.478L532.209 360.589C530.34 359.313 529.019 358.322 528.244 357.615C527.31 356.795 526.558 355.929 525.988 355.018C525.145 353.742 524.689 352.067 524.621 349.993L524.655 349.959C524.655 348.25 525.168 346.78 526.193 345.55C527.219 344.319 528.461 343.704 529.919 343.704C531.377 343.704 532.631 344.319 533.679 345.55C534.704 346.78 535.217 348.25 535.217 349.959V353.138H542.736V349.959C542.736 346.176 541.483 342.941 538.977 340.252C536.47 337.586 533.451 336.253 529.919 336.253C526.455 336.253 523.482 337.552 520.998 340.149C518.492 342.747 517.193 345.892 517.102 349.583H517.067C517.067 353.274 517.922 356.43 519.631 359.051C520.565 360.509 521.75 361.888 523.186 363.187C523.869 363.779 524.644 364.406 525.51 365.066L526.706 365.921L527.902 366.741C529.839 368.086 531.218 369.134 532.038 369.886C534.909 372.529 535.946 375.901 535.148 380.003C534.852 381.53 534.226 382.783 533.269 383.763C532.289 384.72 531.172 385.198 529.919 385.198C528.461 385.198 527.219 384.583 526.193 383.353C525.168 382.145 524.655 380.675 524.655 378.943V375.867H517.102V379.046C517.124 382.806 518.389 386.019 520.896 388.685C523.402 391.351 526.41 392.684 529.919 392.684C532.995 392.684 535.718 391.635 538.088 389.539C540.435 387.443 541.927 384.731 542.565 381.404Z" fill="#152E2E"/>
</g>
</g>
</svg>
